<mxfile host="65bd71144e">
    <diagram id="W7Mkh2RLzANtmnkhI0Z8" name="Page-1">
        <mxGraphModel dx="1320" dy="1114" grid="0" gridSize="10" guides="1" tooltips="1" connect="1" arrows="1" fold="1" page="0" pageScale="1" pageWidth="850" pageHeight="1100" math="0" shadow="0">
            <root>
                <mxCell id="0"/>
                <mxCell id="1" parent="0"/>
                <mxCell id="151" value="" style="rounded=0;whiteSpace=wrap;html=1;fillColor=#000000;strokeColor=#f1e9e9;" parent="1" vertex="1">
                    <mxGeometry x="-17" y="-216" width="1812" height="814" as="geometry"/>
                </mxCell>
                <mxCell id="159" value="" style="rounded=0;whiteSpace=wrap;html=1;strokeColor=#005700;fillColor=#008a00;fontColor=#ffffff;" vertex="1" parent="1">
                    <mxGeometry x="198" y="-83" width="190" height="299" as="geometry"/>
                </mxCell>
                <mxCell id="106" value="" style="rounded=0;whiteSpace=wrap;html=1;strokeColor=#005700;fillColor=#008a00;fontColor=#ffffff;" parent="1" vertex="1">
                    <mxGeometry x="1244" y="115" width="256" height="278" as="geometry"/>
                </mxCell>
                <mxCell id="97" value="" style="rounded=0;whiteSpace=wrap;html=1;strokeColor=#005700;fillColor=#008a00;fontColor=#ffffff;" parent="1" vertex="1">
                    <mxGeometry x="760" y="126" width="436" height="275" as="geometry"/>
                </mxCell>
                <mxCell id="95" style="edgeStyle=none;html=1;exitX=0.5;exitY=1;exitDx=0;exitDy=0;strokeWidth=2;strokeColor=#f1e9e9;" parent="1" source="90" target="93" edge="1">
                    <mxGeometry relative="1" as="geometry">
                        <Array as="points">
                            <mxPoint x="851" y="316"/>
                        </Array>
                    </mxGeometry>
                </mxCell>
                <mxCell id="96" style="edgeStyle=none;html=1;exitX=1;exitY=0.5;exitDx=0;exitDy=0;entryX=0;entryY=0.5;entryDx=0;entryDy=0;strokeWidth=2;strokeColor=#f1e9e9;" parent="1" source="90" target="91" edge="1">
                    <mxGeometry relative="1" as="geometry"/>
                </mxCell>
                <mxCell id="90" value="GetStockPriceDataUseCase" style="rounded=1;whiteSpace=wrap;html=1;strokeColor=#f1e9e9;" parent="1" vertex="1">
                    <mxGeometry x="766" y="194" width="167" height="60" as="geometry"/>
                </mxCell>
                <mxCell id="91" value="StockPriceApiInterface" style="rounded=1;whiteSpace=wrap;html=1;fillColor=#0050ef;fontColor=#ffffff;strokeColor=#f1e9e9;" parent="1" vertex="1">
                    <mxGeometry x="977" y="194" width="175" height="60" as="geometry"/>
                </mxCell>
                <mxCell id="93" value="TokenStorageInterface" style="rounded=1;whiteSpace=wrap;html=1;fillColor=#0050ef;fontColor=#ffffff;strokeColor=#f1e9e9;" parent="1" vertex="1">
                    <mxGeometry x="982" y="288" width="165" height="60" as="geometry"/>
                </mxCell>
                <mxCell id="101" value="Domain" style="text;html=1;strokeColor=none;fillColor=none;align=center;verticalAlign=middle;whiteSpace=wrap;rounded=0;fontSize=19;" parent="1" vertex="1">
                    <mxGeometry x="766" y="133" width="79" height="38" as="geometry"/>
                </mxCell>
                <mxCell id="102" value="" style="rounded=0;whiteSpace=wrap;html=1;strokeColor=#005700;fillColor=#008a00;fontColor=#ffffff;" parent="1" vertex="1">
                    <mxGeometry x="920" y="-60" width="570" height="161" as="geometry"/>
                </mxCell>
                <mxCell id="103" value="Gateways" style="text;html=1;strokeColor=none;fillColor=none;align=center;verticalAlign=middle;whiteSpace=wrap;rounded=0;fontSize=19;" parent="1" vertex="1">
                    <mxGeometry x="942" y="-54" width="79" height="38" as="geometry"/>
                </mxCell>
                <mxCell id="109" style="edgeStyle=none;html=1;exitX=0.5;exitY=1;exitDx=0;exitDy=0;entryX=0.5;entryY=0;entryDx=0;entryDy=0;fontSize=19;strokeWidth=2;dashed=1;strokeColor=#f1e9e9;" parent="1" source="104" target="91" edge="1">
                    <mxGeometry relative="1" as="geometry"/>
                </mxCell>
                <mxCell id="115" style="edgeStyle=none;html=1;exitX=1;exitY=0.5;exitDx=0;exitDy=0;entryX=0;entryY=0.5;entryDx=0;entryDy=0;fontSize=19;strokeWidth=2;strokeColor=#f1e9e9;" parent="1" source="104" target="114" edge="1">
                    <mxGeometry relative="1" as="geometry"/>
                </mxCell>
                <mxCell id="122" style="edgeStyle=none;html=1;exitX=0.5;exitY=0;exitDx=0;exitDy=0;entryX=0.5;entryY=1;entryDx=0;entryDy=0;strokeWidth=2;strokeColor=#f1e9e9;" parent="1" source="104" target="121" edge="1">
                    <mxGeometry relative="1" as="geometry"/>
                </mxCell>
                <mxCell id="104" value="StockPriceApiGateway" style="rounded=1;whiteSpace=wrap;html=1;strokeColor=#f1e9e9;" parent="1" vertex="1">
                    <mxGeometry x="977" y="3" width="175" height="60" as="geometry"/>
                </mxCell>
                <mxCell id="107" value="Infra" style="text;html=1;strokeColor=none;fillColor=none;align=center;verticalAlign=middle;whiteSpace=wrap;rounded=0;fontSize=19;" parent="1" vertex="1">
                    <mxGeometry x="1242" y="129" width="79" height="38" as="geometry"/>
                </mxCell>
                <mxCell id="119" style="edgeStyle=none;html=1;exitX=1;exitY=0.5;exitDx=0;exitDy=0;entryX=0;entryY=0.5;entryDx=0;entryDy=0;fontSize=19;strokeWidth=2;strokeColor=#f1e9e9;" parent="1" source="108" target="118" edge="1">
                    <mxGeometry relative="1" as="geometry"/>
                </mxCell>
                <mxCell id="128" style="edgeStyle=none;html=1;exitX=0;exitY=0.5;exitDx=0;exitDy=0;entryX=1;entryY=0.5;entryDx=0;entryDy=0;strokeWidth=2;dashed=1;strokeColor=#f1e9e9;" parent="1" source="108" target="93" edge="1">
                    <mxGeometry relative="1" as="geometry"/>
                </mxCell>
                <mxCell id="108" value="LocalStorageAdapter" style="rounded=1;whiteSpace=wrap;html=1;strokeColor=#f1e9e9;" parent="1" vertex="1">
                    <mxGeometry x="1294" y="288" width="175" height="60" as="geometry"/>
                </mxCell>
                <mxCell id="116" style="edgeStyle=none;html=1;exitX=0.5;exitY=0;exitDx=0;exitDy=0;entryX=0.5;entryY=1;entryDx=0;entryDy=0;fontSize=19;strokeWidth=2;dashed=1;strokeColor=#f1e9e9;" parent="1" source="113" target="114" edge="1">
                    <mxGeometry relative="1" as="geometry"/>
                </mxCell>
                <mxCell id="120" style="edgeStyle=none;html=1;exitX=1;exitY=0.5;exitDx=0;exitDy=0;entryX=0;entryY=0.5;entryDx=0;entryDy=0;fontSize=19;strokeWidth=2;strokeColor=#f1e9e9;" parent="1" source="113" target="117" edge="1">
                    <mxGeometry relative="1" as="geometry"/>
                </mxCell>
                <mxCell id="113" value="AxiosAdapter" style="rounded=1;whiteSpace=wrap;html=1;strokeColor=#f1e9e9;" parent="1" vertex="1">
                    <mxGeometry x="1294" y="196" width="175" height="60" as="geometry"/>
                </mxCell>
                <mxCell id="114" value="HttpGetRequestInterface" style="rounded=1;whiteSpace=wrap;html=1;fillColor=#0050ef;fontColor=#ffffff;strokeColor=#f1e9e9;" parent="1" vertex="1">
                    <mxGeometry x="1294" y="3" width="175" height="60" as="geometry"/>
                </mxCell>
                <mxCell id="117" value="Axios" style="rounded=1;whiteSpace=wrap;html=1;fillColor=#e3c800;fontColor=#000000;strokeColor=#f1e9e9;" parent="1" vertex="1">
                    <mxGeometry x="1542" y="196" width="175" height="60" as="geometry"/>
                </mxCell>
                <mxCell id="118" value="LocalStorage" style="rounded=1;whiteSpace=wrap;html=1;fillColor=#e3c800;fontColor=#000000;strokeColor=#f1e9e9;" parent="1" vertex="1">
                    <mxGeometry x="1542" y="288" width="175" height="60" as="geometry"/>
                </mxCell>
                <mxCell id="121" value="StockServiceApi" style="rounded=1;whiteSpace=wrap;html=1;fillColor=#e3c800;fontColor=#000000;strokeColor=#f1e9e9;" parent="1" vertex="1">
                    <mxGeometry x="977" y="-179" width="175" height="60" as="geometry"/>
                </mxCell>
                <mxCell id="123" value="" style="rounded=0;whiteSpace=wrap;html=1;strokeColor=#005700;fillColor=#008a00;fontColor=#ffffff;" parent="1" vertex="1">
                    <mxGeometry x="419" y="-169" width="312" height="566" as="geometry"/>
                </mxCell>
                <mxCell id="124" value="Presentation" style="text;html=1;strokeColor=none;fillColor=none;align=center;verticalAlign=middle;whiteSpace=wrap;rounded=0;fontSize=19;" parent="1" vertex="1">
                    <mxGeometry x="444" y="-162" width="79" height="38" as="geometry"/>
                </mxCell>
                <mxCell id="126" style="edgeStyle=none;html=1;exitX=1;exitY=0.5;exitDx=0;exitDy=0;entryX=0;entryY=0.5;entryDx=0;entryDy=0;strokeWidth=2;strokeColor=#f1e9e9;" parent="1" source="125" target="90" edge="1">
                    <mxGeometry relative="1" as="geometry"/>
                </mxCell>
                <mxCell id="129" style="edgeStyle=none;html=1;exitX=0.5;exitY=1;exitDx=0;exitDy=0;entryX=0.5;entryY=0;entryDx=0;entryDy=0;strokeWidth=2;strokeColor=#f1e9e9;" parent="1" source="125" target="127" edge="1">
                    <mxGeometry relative="1" as="geometry"/>
                </mxCell>
                <mxCell id="157" style="edgeStyle=none;html=1;exitX=0.5;exitY=0;exitDx=0;exitDy=0;entryX=0.5;entryY=1;entryDx=0;entryDy=0;strokeWidth=2;" edge="1" parent="1" source="125" target="156">
                    <mxGeometry relative="1" as="geometry"/>
                </mxCell>
                <mxCell id="125" value="GetStockPricePage" style="rounded=1;whiteSpace=wrap;html=1;strokeColor=#f1e9e9;" parent="1" vertex="1">
                    <mxGeometry x="527" y="194" width="120" height="60" as="geometry"/>
                </mxCell>
                <mxCell id="127" value="ValidatorInterface" style="rounded=1;whiteSpace=wrap;html=1;fillColor=#0050ef;fontColor=#ffffff;strokeColor=#f1e9e9;" parent="1" vertex="1">
                    <mxGeometry x="527" y="305" width="120" height="60" as="geometry"/>
                </mxCell>
                <mxCell id="130" value="" style="rounded=0;whiteSpace=wrap;html=1;strokeColor=#005700;fillColor=#008a00;fontColor=#ffffff;" parent="1" vertex="1">
                    <mxGeometry x="419" y="420" width="511" height="131" as="geometry"/>
                </mxCell>
                <mxCell id="131" value="Validation" style="text;html=1;strokeColor=none;fillColor=none;align=center;verticalAlign=middle;whiteSpace=wrap;rounded=0;fontSize=19;" parent="1" vertex="1">
                    <mxGeometry x="436" y="427" width="79" height="38" as="geometry"/>
                </mxCell>
                <mxCell id="135" style="edgeStyle=none;html=1;exitX=0.5;exitY=0;exitDx=0;exitDy=0;entryX=0.5;entryY=1;entryDx=0;entryDy=0;strokeWidth=2;dashed=1;strokeColor=#f1e9e9;" parent="1" source="133" target="127" edge="1">
                    <mxGeometry relative="1" as="geometry"/>
                </mxCell>
                <mxCell id="142" style="edgeStyle=none;html=1;exitX=1;exitY=0.5;exitDx=0;exitDy=0;entryX=0;entryY=0.5;entryDx=0;entryDy=0;strokeWidth=2;strokeColor=#f1e9e9;" parent="1" source="133" target="137" edge="1">
                    <mxGeometry relative="1" as="geometry"/>
                </mxCell>
                <mxCell id="133" value="ValidatorComposite" style="rounded=1;whiteSpace=wrap;html=1;strokeColor=#f1e9e9;" parent="1" vertex="1">
                    <mxGeometry x="514.5" y="471" width="145" height="60" as="geometry"/>
                </mxCell>
                <mxCell id="144" style="edgeStyle=none;html=1;exitX=0.5;exitY=0;exitDx=0;exitDy=0;entryX=0.75;entryY=1;entryDx=0;entryDy=0;strokeWidth=2;dashed=1;strokeColor=#f1e9e9;" parent="1" source="137" target="127" edge="1">
                    <mxGeometry relative="1" as="geometry">
                        <Array as="points">
                            <mxPoint x="791" y="448"/>
                            <mxPoint x="617" y="446"/>
                        </Array>
                    </mxGeometry>
                </mxCell>
                <mxCell id="137" value="StringValidator" style="rounded=1;whiteSpace=wrap;html=1;strokeColor=#f1e9e9;" parent="1" vertex="1">
                    <mxGeometry x="718" y="471" width="145" height="60" as="geometry"/>
                </mxCell>
                <mxCell id="154" style="edgeStyle=none;html=1;exitX=1;exitY=0.25;exitDx=0;exitDy=0;entryX=0.5;entryY=1;entryDx=0;entryDy=0;strokeWidth=2;strokeColor=#FFFFFF;" edge="1" parent="1" source="152" target="153">
                    <mxGeometry relative="1" as="geometry">
                        <Array as="points">
                            <mxPoint x="634" y="-7"/>
                        </Array>
                    </mxGeometry>
                </mxCell>
                <mxCell id="158" style="edgeStyle=none;html=1;exitX=1;exitY=0.75;exitDx=0;exitDy=0;entryX=0.5;entryY=0;entryDx=0;entryDy=0;strokeWidth=2;strokeColor=#FFFFFF;" edge="1" parent="1" source="152" target="156">
                    <mxGeometry relative="1" as="geometry">
                        <Array as="points">
                            <mxPoint x="584" y="23"/>
                        </Array>
                    </mxGeometry>
                </mxCell>
                <mxCell id="167" style="edgeStyle=none;html=1;exitX=0;exitY=0.5;exitDx=0;exitDy=0;entryX=1;entryY=0.5;entryDx=0;entryDy=0;strokeWidth=2;dashed=1;strokeColor=#FFFFFF;" edge="1" parent="1" source="152" target="165">
                    <mxGeometry relative="1" as="geometry"/>
                </mxCell>
                <mxCell id="152" value="AuthPageProxy" style="rounded=1;whiteSpace=wrap;html=1;strokeColor=#f1e9e9;" vertex="1" parent="1">
                    <mxGeometry x="438" y="-22" width="120" height="60" as="geometry"/>
                </mxCell>
                <mxCell id="153" value="LoginPage" style="rounded=1;whiteSpace=wrap;html=1;strokeColor=#f1e9e9;" vertex="1" parent="1">
                    <mxGeometry x="574" y="-118" width="120" height="60" as="geometry"/>
                </mxCell>
                <mxCell id="156" value="PageInterface" style="rounded=1;whiteSpace=wrap;html=1;strokeColor=#001DBC;fillColor=#0050ef;fontColor=#ffffff;" vertex="1" parent="1">
                    <mxGeometry x="527" y="86" width="120" height="60" as="geometry"/>
                </mxCell>
                <mxCell id="160" value="Main" style="text;html=1;strokeColor=none;fillColor=none;align=center;verticalAlign=middle;whiteSpace=wrap;rounded=0;fontSize=19;" vertex="1" parent="1">
                    <mxGeometry x="198" y="-75" width="79" height="38" as="geometry"/>
                </mxCell>
                <mxCell id="166" style="edgeStyle=none;html=1;exitX=0.5;exitY=0;exitDx=0;exitDy=0;entryX=0.5;entryY=1;entryDx=0;entryDy=0;strokeWidth=2;strokeColor=#FFFFFF;" edge="1" parent="1" source="163" target="165">
                    <mxGeometry relative="1" as="geometry"/>
                </mxCell>
                <mxCell id="168" style="edgeStyle=none;html=1;exitX=0;exitY=0.5;exitDx=0;exitDy=0;entryX=1;entryY=0.5;entryDx=0;entryDy=0;strokeWidth=2;strokeColor=#FFFFFF;" edge="1" parent="1" source="163" target="164">
                    <mxGeometry relative="1" as="geometry"/>
                </mxCell>
                <mxCell id="163" value="Routes" style="rounded=1;whiteSpace=wrap;html=1;strokeColor=#f1e9e9;" vertex="1" parent="1">
                    <mxGeometry x="225" y="90" width="120" height="60" as="geometry"/>
                </mxCell>
                <mxCell id="164" value="React" style="rounded=1;whiteSpace=wrap;html=1;fillColor=#e3c800;fontColor=#000000;strokeColor=#f1e9e9;" vertex="1" parent="1">
                    <mxGeometry x="20" y="90" width="117" height="60" as="geometry"/>
                </mxCell>
                <mxCell id="165" value="PageInterface" style="rounded=1;whiteSpace=wrap;html=1;strokeColor=#001DBC;fillColor=#0050ef;fontColor=#ffffff;" vertex="1" parent="1">
                    <mxGeometry x="225" y="-22" width="120" height="60" as="geometry"/>
                </mxCell>
                <mxCell id="169" style="edgeStyle=none;html=1;exitX=0.5;exitY=1;exitDx=0;exitDy=0;entryX=0.5;entryY=0;entryDx=0;entryDy=0;strokeWidth=2;strokeColor=#f1e9e9;" edge="1" parent="1">
                    <mxGeometry relative="1" as="geometry">
                        <mxPoint x="587" y="254" as="sourcePoint"/>
                        <mxPoint x="587" y="304.9999999999998" as="targetPoint"/>
                    </mxGeometry>
                </mxCell>
                <mxCell id="170" style="edgeStyle=none;html=1;exitX=1;exitY=0.5;exitDx=0;exitDy=0;entryX=0;entryY=0.5;entryDx=0;entryDy=0;strokeWidth=2;strokeColor=#f1e9e9;" edge="1" parent="1">
                    <mxGeometry relative="1" as="geometry">
                        <mxPoint x="647" y="224" as="sourcePoint"/>
                        <mxPoint x="766" y="224" as="targetPoint"/>
                    </mxGeometry>
                </mxCell>
                <mxCell id="171" style="edgeStyle=none;html=1;exitX=0.5;exitY=0;exitDx=0;exitDy=0;entryX=0.5;entryY=1;entryDx=0;entryDy=0;strokeWidth=2;" edge="1" parent="1">
                    <mxGeometry relative="1" as="geometry">
                        <mxPoint x="587" y="194" as="sourcePoint"/>
                        <mxPoint x="587" y="146" as="targetPoint"/>
                    </mxGeometry>
                </mxCell>
                <mxCell id="172" style="edgeStyle=none;html=1;exitX=0.5;exitY=1;exitDx=0;exitDy=0;entryX=0.5;entryY=0;entryDx=0;entryDy=0;strokeWidth=2;strokeColor=#FFFFFF;" edge="1" parent="1">
                    <mxGeometry relative="1" as="geometry">
                        <mxPoint x="587" y="254.5" as="sourcePoint"/>
                        <mxPoint x="587" y="305.4999999999998" as="targetPoint"/>
                    </mxGeometry>
                </mxCell>
                <mxCell id="173" style="edgeStyle=none;html=1;exitX=1;exitY=0.5;exitDx=0;exitDy=0;entryX=0;entryY=0.5;entryDx=0;entryDy=0;strokeWidth=2;strokeColor=#FFFFFF;" edge="1" parent="1">
                    <mxGeometry relative="1" as="geometry">
                        <mxPoint x="647" y="224.5" as="sourcePoint"/>
                        <mxPoint x="766" y="224.5" as="targetPoint"/>
                    </mxGeometry>
                </mxCell>
                <mxCell id="174" style="edgeStyle=none;html=1;exitX=0.5;exitY=0;exitDx=0;exitDy=0;entryX=0.5;entryY=1;entryDx=0;entryDy=0;strokeWidth=2;strokeColor=#FFFFFF;" edge="1" parent="1">
                    <mxGeometry relative="1" as="geometry">
                        <mxPoint x="587" y="194.5" as="sourcePoint"/>
                        <mxPoint x="587" y="146.5" as="targetPoint"/>
                    </mxGeometry>
                </mxCell>
                <mxCell id="175" value="React" style="rounded=1;whiteSpace=wrap;html=1;fillColor=#e3c800;fontColor=#000000;strokeColor=#f1e9e9;" vertex="1" parent="1">
                    <mxGeometry x="20" y="90" width="117" height="60" as="geometry"/>
                </mxCell>
                <mxCell id="176" value="Routes" style="rounded=1;whiteSpace=wrap;html=1;strokeColor=#f1e9e9;" vertex="1" parent="1">
                    <mxGeometry x="225" y="90" width="120" height="60" as="geometry"/>
                </mxCell>
                <mxCell id="177" value="PageInterface" style="rounded=1;whiteSpace=wrap;html=1;strokeColor=#001DBC;fillColor=#0050ef;fontColor=#ffffff;" vertex="1" parent="1">
                    <mxGeometry x="225" y="-22" width="120" height="60" as="geometry"/>
                </mxCell>
                <mxCell id="178" value="AuthPageProxy" style="rounded=1;whiteSpace=wrap;html=1;strokeColor=#f1e9e9;" vertex="1" parent="1">
                    <mxGeometry x="438" y="-22" width="120" height="60" as="geometry"/>
                </mxCell>
                <mxCell id="179" value="React" style="rounded=1;whiteSpace=wrap;html=1;fillColor=#e3c800;fontColor=#000000;strokeColor=#FFFFFF;" vertex="1" parent="1">
                    <mxGeometry x="20" y="90" width="117" height="60" as="geometry"/>
                </mxCell>
                <mxCell id="180" value="Routes" style="rounded=1;whiteSpace=wrap;html=1;strokeColor=#FFFFFF;" vertex="1" parent="1">
                    <mxGeometry x="225" y="90" width="120" height="60" as="geometry"/>
                </mxCell>
                <mxCell id="181" value="PageInterface" style="rounded=1;whiteSpace=wrap;html=1;strokeColor=#FFFFFF;fillColor=#0050ef;fontColor=#ffffff;" vertex="1" parent="1">
                    <mxGeometry x="225" y="-22" width="120" height="60" as="geometry"/>
                </mxCell>
                <mxCell id="182" value="AuthPageProxy" style="rounded=1;whiteSpace=wrap;html=1;strokeColor=#FFFFFF;" vertex="1" parent="1">
                    <mxGeometry x="438" y="-22" width="120" height="60" as="geometry"/>
                </mxCell>
                <mxCell id="183" value="PageInterface" style="rounded=1;whiteSpace=wrap;html=1;strokeColor=#FFFFFF;fillColor=#0050ef;fontColor=#ffffff;" vertex="1" parent="1">
                    <mxGeometry x="527" y="86" width="120" height="60" as="geometry"/>
                </mxCell>
            </root>
        </mxGraphModel>
    </diagram>
</mxfile>